<svg width="73" height="73" viewBox="0 0 73 73" fill="none" xmlns="http://www.w3.org/2000/svg">
<g filter="url(#filter0_d_1_222)">
<circle cx="36.5" cy="32.5" r="32.5" fill="white"/>
<g clip-path="url(#clip0_1_222)">
<path d="M49.7203 18.1779H24.3813C22.2528 18.1803 20.5278 19.9053 20.5254 22.0338V44.0677C20.5278 46.1963 22.2528 47.9213 24.3813 47.9237H49.7203C51.8489 47.9213 53.5738 46.1963 53.5762 44.0677V22.0338C53.5738 19.9053 51.8489 18.1803 49.7203 18.1779ZM52.4745 44.0677C52.4727 45.5881 51.2407 46.8202 49.7203 46.822H24.3813C22.861 46.8202 21.6289 45.5881 21.6271 44.0677V22.0338C21.6289 20.5135 22.861 19.2814 24.3813 19.2796H49.7203C51.2407 19.2814 52.4727 20.5135 52.4745 22.0338V44.0677Z" fill="#DC7000"/>
<path d="M49.7203 22.5847H24.3813C23.4686 22.5847 22.7288 23.3246 22.7288 24.2372V44.0677C22.7288 44.9804 23.4686 45.7203 24.3813 45.7203H49.7203C50.633 45.7203 51.3728 44.9804 51.3728 44.0677V24.2372C51.3728 23.3246 50.633 22.5847 49.7203 22.5847ZM37.0508 33.5267L31.0515 30.2966L37.0508 27.0664L43.0501 30.2966L37.0508 33.5267ZM43.661 31.2187V37.6779L37.6016 40.9422V34.483L43.661 31.2187ZM36.4999 34.483V40.9422L30.4406 37.6779V31.2187L36.4999 34.483ZM23.8305 24.2372C23.8305 23.933 24.0771 23.6864 24.3813 23.6864H36.4999V26.1101L29.6287 29.8118C29.6215 29.8157 29.6133 29.8173 29.6061 29.8217C29.4395 29.9218 29.338 30.1022 29.3389 30.2966V34.9138L23.8305 37.668V24.2372ZM50.2711 44.0677C50.2711 44.372 50.0245 44.6186 49.7203 44.6186H24.3813C24.0771 44.6186 23.8305 44.372 23.8305 44.0677V38.8997L29.3389 36.1454V38.0084C29.339 38.211 29.4503 38.3971 29.6287 38.4932L36.7897 42.3491C36.9527 42.4368 37.1489 42.4368 37.3119 42.3491L44.4729 38.4932C44.6513 38.3971 44.7626 38.211 44.7627 38.0084V36.1454L50.2711 38.8997V44.0677ZM50.2711 37.668L44.7627 34.9138V30.2966C44.7626 30.1028 44.6607 29.9233 44.4944 29.8239C44.4872 29.8195 44.479 29.8179 44.4718 29.814L37.6016 26.1101V23.6864H49.7203C50.0245 23.6864 50.2711 23.933 50.2711 24.2372V37.668Z" fill="#DC7000"/>
<path d="M23.8304 21.483C24.1346 21.483 24.3812 21.2364 24.3812 20.9322C24.3812 20.628 24.1346 20.3813 23.8304 20.3813C23.5262 20.3813 23.2795 20.628 23.2795 20.9322C23.2795 21.2364 23.5262 21.483 23.8304 21.483Z" fill="#DC7000"/>
<path d="M26.0338 21.483C26.338 21.483 26.5846 21.2364 26.5846 20.9322C26.5846 20.628 26.338 20.3813 26.0338 20.3813C25.7295 20.3813 25.4829 20.628 25.4829 20.9322C25.4829 21.2364 25.7295 21.483 26.0338 21.483Z" fill="#DC7000"/>
<path d="M28.2371 21.483C28.5413 21.483 28.788 21.2364 28.788 20.9322C28.788 20.628 28.5413 20.3813 28.2371 20.3813C27.9329 20.3813 27.6863 20.628 27.6863 20.9322C27.6863 21.2364 27.9329 21.483 28.2371 21.483Z" fill="#DC7000"/>
<path d="M42.0084 21.483H49.7202C50.0245 21.483 50.2711 21.2364 50.2711 20.9322C50.2711 20.628 50.0245 20.3813 49.7202 20.3813H42.0084C41.7041 20.3813 41.4575 20.628 41.4575 20.9322C41.4575 21.2364 41.7041 21.483 42.0084 21.483Z" fill="#DC7000"/>
</g>
</g>
<defs>
<filter id="filter0_d_1_222" x="0" y="0" width="73" height="73" filterUnits="userSpaceOnUse" color-interpolation-filters="sRGB">
<feFlood flood-opacity="0" result="BackgroundImageFix"/>
<feColorMatrix in="SourceAlpha" type="matrix" values="0 0 0 0 0 0 0 0 0 0 0 0 0 0 0 0 0 0 127 0" result="hardAlpha"/>
<feOffset dy="4"/>
<feGaussianBlur stdDeviation="2"/>
<feComposite in2="hardAlpha" operator="out"/>
<feColorMatrix type="matrix" values="0 0 0 0 0 0 0 0 0 0 0 0 0 0 0 0 0 0 0.25 0"/>
<feBlend mode="normal" in2="BackgroundImageFix" result="effect1_dropShadow_1_222"/>
<feBlend mode="normal" in="SourceGraphic" in2="effect1_dropShadow_1_222" result="shape"/>
</filter>
<clipPath id="clip0_1_222">
<rect width="33.0508" height="33.0508" fill="white" transform="translate(20.5254 16.5254)"/>
</clipPath>
</defs>
</svg>
